<?xml version="1.0" encoding="utf-8"?>
<!-- Generator: Adobe Illustrator 26.3.1, SVG Export Plug-In . SVG Version: 6.00 Build 0)  -->
<svg version="1.1" id="layer" xmlns="http://www.w3.org/2000/svg" xmlns:xlink="http://www.w3.org/1999/xlink" x="0px" y="0px"
	 viewBox="0 0 605.9 96.7" style="enable-background:new 0 0 605.9 96.7;" xml:space="preserve">
<style type="text/css">
	.st0{fill:#FFFFFF;}
</style>
<g>
	<g>
		<path class="st0" d="M285.6,22.3c0,9.3-5.3,14.2-13.3,14.2c-7.9,0-13.3-4.8-13.3-13.9V4h3.6v18.4c0,6.9,3.7,10.8,9.8,10.8
			c5.9,0,9.6-3.6,9.6-10.6V4h3.6L285.6,22.3L285.6,22.3z"/>
		<path class="st0" d="M296.2,35.9h-3.6V12.3h3.5v4.1c1.6-2.6,4-4.6,8.1-4.6c5.7,0,9,3.8,9,9.5V36h-3.5V22.2c0-4.4-2.4-7.1-6.5-7.1
			s-7.1,3-7.1,7.4v13.4H296.2z"/>
		<path class="st0" d="M320,7.2V3.3h4v3.9H320z M320.2,35.9V12.3h3.5v23.6H320.2z"/>
		<path class="st0" d="M348.5,12.3h3.8L342,36.1h-3.1l-10.3-23.8h3.9l7.9,19.6L348.5,12.3z"/>
		<path class="st0" d="M365.9,33.4c3.2,0,5.5-1.3,7.4-3.3l2.2,2c-2.4,2.6-5.3,4.4-9.7,4.4c-6.5,0-11.8-5-11.8-12.3
			c0-6.9,4.8-12.3,11.3-12.3c7,0,11,5.6,11,12.5c0,0.3,0,0.7,0,1.1h-18.7C358.1,30.5,361.7,33.4,365.9,33.4z M372.8,22.8
			c-0.4-4.3-2.8-8-7.5-8c-4.1,0-7.2,3.4-7.7,8H372.8z"/>
		<path class="st0" d="M385.1,35.9h-3.5V12.3h3.5v6.2c1.7-3.9,5.2-6.8,9.6-6.6v3.8h-0.3c-5.2,0-9.4,3.7-9.4,10.8L385.1,35.9
			L385.1,35.9z"/>
		<path class="st0" d="M407,36.4c-3.4,0-7.1-1.3-9.8-3.5l1.8-2.5c2.6,1.9,5.4,3,8.2,3c2.8,0,4.9-1.5,4.9-3.7v-0.1
			c0-2.4-2.8-3.3-5.9-4.2c-3.7-1.1-7.8-2.3-7.8-6.7v-0.1c0-4.1,3.4-6.8,8-6.8c2.9,0,6.1,1,8.5,2.6l-1.6,2.6c-2.2-1.4-4.7-2.3-7-2.3
			c-2.8,0-4.6,1.5-4.6,3.4v0.1c0,2.2,2.9,3.1,6.1,4.1c3.7,1.1,7.6,2.5,7.6,6.8v0.1C415.4,33.8,411.7,36.4,407,36.4z"/>
		<path class="st0" d="M421.1,7.2V3.3h4v3.9H421.1z M421.3,35.9V12.3h3.5v23.6H421.3z"/>
		<path class="st0" d="M436.9,29.2c0,2.9,1.6,3.9,4,3.9c1.2,0,2.2-0.2,3.4-0.8v3c-1.2,0.6-2.6,1-4.2,1c-3.8,0-6.7-1.9-6.7-6.7V15.3
			h-3.3v-3.1h3.3V5.1h3.5v7.1h7.5v3.1h-7.5L436.9,29.2L436.9,29.2z"/>
		<path class="st0" d="M461.2,36.7c-2,4.9-4.3,6.7-7.9,6.7c-2,0-3.4-0.4-5-1.2l1.2-2.8c1.1,0.6,2.2,0.9,3.7,0.9
			c2.1,0,3.4-1.1,4.8-4.4l-10.7-23.5h3.9l8.6,19.7l7.6-19.7h3.7L461.2,36.7z"/>
		<path class="st0" d="M499.3,36.5c-7.1,0-12.2-5.6-12.2-12.3s5.2-12.4,12.3-12.4s12.3,5.6,12.3,12.3S506.4,36.5,499.3,36.5z
			 M499.3,14.9c-5.1,0-8.6,4.1-8.6,9.2s3.7,9.2,8.7,9.2c5.1,0,8.7-4.1,8.7-9.1C508.1,19,504.3,14.9,499.3,14.9z"/>
		<path class="st0" d="M529.4,12.4v3H522v20.5h-3.5V15.4h-3.2v-3.1h3.2v-2.1c0-5.2,2.6-7.9,7.1-7.9c1.6,0,2.7,0.2,3.9,0.6V6
			c-1.3-0.4-2.2-0.6-3.4-0.6c-2.7,0-4.1,1.6-4.1,5v1.9L529.4,12.4L529.4,12.4z"/>
		<path class="st0" d="M274.1,89.8c-9.2,0-16-7.3-16-16.5c0-9.1,6.8-16.6,16.2-16.6c5.8,0,9.3,2.1,12.5,5.1l-2.5,2.6
			c-2.7-2.6-5.7-4.4-10.1-4.4c-7.1,0-12.4,5.7-12.4,13.2c0,7.4,5.3,13.2,12.4,13.2c4.4,0,7.3-1.7,10.3-4.6l2.4,2.3
			C283.6,87.5,279.9,89.8,274.1,89.8z"/>
		<path class="st0" d="M293.1,70.1l-1.1-2.9c2.6-1.2,5.2-2,8.6-2c6.4,0,10.1,3.3,10.1,9.5v14.4h-3.4v-3.6c-1.6,2.1-4.4,4.1-8.5,4.1
			c-4.4,0-8.8-2.5-8.8-7.4c0-5,4.1-7.7,10.1-7.7c3,0,5.2,0.4,7.3,1v-0.8c0-4.2-2.6-6.4-7-6.4C297.4,68.4,295.2,69.1,293.1,70.1z
			 M293.5,82.2c0,3,2.7,4.8,5.9,4.8c4.3,0,7.9-2.6,7.9-6.4v-2.3c-1.7-0.5-4.1-1-6.9-1C295.9,77.3,293.5,79.2,293.5,82.2z"/>
		<path class="st0" d="M317.5,89.2V55.8h3.5v33.4H317.5z"/>
		<path class="st0" d="M328.4,60.4v-3.9h4v3.9H328.4L328.4,60.4z M328.6,89.2V65.6h3.5v23.6C332.1,89.2,328.6,89.2,328.6,89.2z"/>
		<path class="st0" d="M351.7,65.7v3h-7.4v20.5h-3.5V68.7h-3.2v-3.1h3.2v-2.1c0-5.2,2.6-7.9,7.1-7.9c1.6,0,2.7,0.2,3.9,0.6v3.1
			c-1.3-0.4-2.2-0.6-3.4-0.6c-2.7,0-4.1,1.6-4.1,5v1.9L351.7,65.7L351.7,65.7z"/>
		<path class="st0" d="M365.6,89.8c-7.1,0-12.2-5.6-12.2-12.3s5.2-12.4,12.3-12.4c7.1,0,12.3,5.6,12.3,12.3S372.7,89.8,365.6,89.8z
			 M365.6,68.2c-5.1,0-8.6,4.1-8.6,9.2s3.7,9.2,8.7,9.2c5.1,0,8.7-4.1,8.7-9.1C374.4,72.3,370.6,68.2,365.6,68.2z"/>
		<path class="st0" d="M386.9,89.2h-3.5V65.6h3.5v6.2c1.7-3.9,5.2-6.8,9.6-6.6V69h-0.3c-5.2,0-9.4,3.7-9.4,10.8L386.9,89.2
			L386.9,89.2z"/>
		<path class="st0" d="M404.5,89.2H401V65.6h3.5v4.1c1.6-2.6,4-4.6,8.1-4.6c5.7,0,9,3.8,9,9.5v14.7h-3.5V75.5c0-4.4-2.4-7.1-6.5-7.1
			s-7.1,3-7.1,7.4V89.2z"/>
		<path class="st0" d="M428.3,60.4v-3.9h4v3.9H428.3L428.3,60.4z M428.5,89.2V65.6h3.5v23.6C432,89.2,428.5,89.2,428.5,89.2z"/>
		<path class="st0" d="M440.7,70.1l-1.1-2.9c2.6-1.2,5.2-2,8.6-2c6.4,0,10.1,3.3,10.1,9.5v14.4h-3.4v-3.6c-1.6,2.1-4.4,4.1-8.5,4.1
			c-4.4,0-8.8-2.5-8.8-7.4c0-5,4.1-7.7,10.1-7.7c3,0,5.2,0.4,7.3,1v-0.8c0-4.2-2.6-6.4-7-6.4C445,68.4,442.8,69.1,440.7,70.1z
			 M441.1,82.2c0,3,2.7,4.8,5.9,4.8c4.3,0,7.9-2.6,7.9-6.4v-2.3c-1.7-0.5-4.1-1-6.9-1C443.5,77.3,441.1,79.2,441.1,82.2z"/>
		<path class="st0" d="M466,89.2h-1.6v-4.8h4.2v4.1c0,3.7-1.6,5.5-5.1,6.3l-0.5-1.6C465.3,92.4,466.2,91.2,466,89.2z"/>
		<path class="st0" d="M492.4,57.2v32h-3.6v-32H492.4z"/>
		<path class="st0" d="M503.8,89.2h-3.5V65.6h3.5v6.2c1.7-3.9,5.2-6.8,9.6-6.6V69h-0.3c-5.2,0-9.4,3.7-9.4,10.8L503.8,89.2
			L503.8,89.2z"/>
		<path class="st0" d="M535.3,65.6h3.8l-10.3,23.8h-3.1l-10.2-23.8h3.9l7.9,19.6L535.3,65.6z"/>
		<path class="st0" d="M543.8,60.4v-3.9h4v3.9H543.8L543.8,60.4z M544,89.2V65.6h3.5v23.6C547.5,89.2,544,89.2,544,89.2z"/>
		<path class="st0" d="M558.3,89.2h-3.5V65.6h3.5v4.1c1.6-2.6,4-4.6,8.1-4.6c5.7,0,9,3.8,9,9.5v14.7h-3.5V75.5
			c0-4.4-2.4-7.1-6.5-7.1s-7.1,3-7.1,7.4V89.2z"/>
		<path class="st0" d="M592.5,86.7c3.2,0,5.5-1.3,7.4-3.3l2.2,2c-2.4,2.6-5.3,4.4-9.7,4.4c-6.5,0-11.8-5-11.8-12.3
			c0-6.9,4.8-12.3,11.3-12.3c7,0,11,5.6,11,12.5c0,0.3,0,0.7,0,1.1h-18.7C584.6,83.8,588.3,86.7,592.5,86.7z M599.4,76.1
			c-0.4-4.3-2.8-8-7.5-8c-4.1,0-7.2,3.4-7.7,8H599.4z"/>
	</g>
	<g>
		<path class="st0" d="M2.9,51.8V3.9h23.9v47.4c0,12.3,6.2,18.2,15.7,18.2c9.6,0,15.8-5.6,15.8-17.5V4h23.9v47.3
			c0,27.4-15.7,39.6-40,39.6C18.1,90.8,2.9,78.5,2.9,51.8z"/>
		<path class="st0" d="M93.7,46.8v-0.2c0-24.9,19-44.3,44.8-44.3c17.4,0,28.6,7.3,36.2,17.7l-17.8,13.8c-4.9-6-10.5-10-18.6-10
			C126.4,23.8,118,34,118,46.5v0.2c0,12.8,8.4,22.8,20.3,22.8c8.9,0,14.1-4.1,19.2-10.3l17.8,12.7c-8,11.1-18.9,19.2-37.6,19.2
			C113.3,90.9,93.7,72.3,93.7,46.8z"/>
		<path class="st0" d="M188.6,3.9h23.6v85.3h-23.6V3.9z"/>
	</g>
</g>
</svg>
